<svg width="15" height="14" viewBox="0 0 15 14" fill="none" xmlns="http://www.w3.org/2000/svg">
<path d="M13.5 7.99805H8.5V12.998C8.5 13.2633 8.39464 13.5176 8.20711 13.7052C8.01957 13.8927 7.76522 13.998 7.5 13.998C7.23478 13.998 6.98043 13.8927 6.79289 13.7052C6.60536 13.5176 6.5 13.2633 6.5 12.998V7.99805H1.5C1.23478 7.99805 0.98043 7.89269 0.792893 7.70515C0.605357 7.51762 0.5 7.26326 0.5 6.99805C0.5 6.73283 0.605357 6.47848 0.792893 6.29094C0.98043 6.1034 1.23478 5.99805 1.5 5.99805H6.5V0.998047C6.5 0.73283 6.60536 0.478476 6.79289 0.29094C6.98043 0.103403 7.23478 -0.00195313 7.5 -0.00195312C7.76522 -0.00195313 8.01957 0.103403 8.20711 0.29094C8.39464 0.478476 8.5 0.73283 8.5 0.998047V5.99805H13.5C13.7652 5.99805 14.0196 6.1034 14.2071 6.29094C14.3946 6.47848 14.5 6.73283 14.5 6.99805C14.5 7.26326 14.3946 7.51762 14.2071 7.70515C14.0196 7.89269 13.7652 7.99805 13.5 7.99805Z" fill="white"/>
</svg>
