<svg width="89" height="88" viewBox="0 0 89 88" fill="none" xmlns="http://www.w3.org/2000/svg">
<circle cx="44.5" cy="44" r="44" fill="white"/>
<circle cx="44.5" cy="44" r="36" fill="#F0FDF4"/>
<path d="M52.8202 40.5201L52.8203 40.5202L52.8261 40.5141C53.4936 39.8236 53.502 38.7282 52.8202 38.0464C52.1416 37.3678 51.025 37.3678 50.3464 38.0464L42.1333 46.2595L38.6535 42.7797C37.9749 42.1011 36.8584 42.1011 36.1798 42.7797C35.5012 43.4583 35.5012 44.5749 36.1798 45.2535L40.8964 49.9701C41.2225 50.2962 41.6659 50.4833 42.1333 50.4833C42.6008 50.4833 43.0442 50.2962 43.3702 49.9701L52.8202 40.5201ZM28.3333 43.9999C28.3333 35.0927 35.5928 27.8333 44.5 27.8333C53.4072 27.8333 60.6666 35.0927 60.6666 43.9999C60.6666 52.9071 53.4072 60.1666 44.5 60.1666C35.5928 60.1666 28.3333 52.9071 28.3333 43.9999Z" fill="#22C55E" stroke="#22C55E"/>
</svg>
