<svg width="43" height="43" viewBox="0 0 43 43" fill="none" xmlns="http://www.w3.org/2000/svg">
<path d="M35.944 33.4998C37.8738 31.1779 39.2159 28.4254 39.857 25.4752C40.498 22.5249 40.419 19.4636 39.6268 16.5503C38.8345 13.637 37.3521 10.9573 35.3052 8.73807C33.2583 6.5188 30.7069 4.82518 27.867 3.80048C25.0271 2.77577 21.9822 2.45013 18.9898 2.85111C15.9974 3.25208 13.1457 4.36788 10.6757 6.10409C8.20576 7.84031 6.19031 10.1459 4.79986 12.8258C3.40941 15.5056 2.68486 18.481 2.6875 21.5001C2.68863 25.889 4.23526 30.1374 7.05603 33.4998L7.02916 33.5226C7.12322 33.6355 7.23072 33.7323 7.32747 33.8438C7.44841 33.9822 7.57875 34.1125 7.70372 34.2469C8.07818 34.6563 8.46786 35.046 8.87278 35.416C8.9982 35.5271 9.12361 35.6355 9.24903 35.7412C9.67903 36.1129 10.1225 36.4632 10.5793 36.792C10.6385 36.8323 10.6922 36.8847 10.7513 36.9264V36.9102C13.8985 39.1251 17.6529 40.3139 21.5013 40.3139C25.3498 40.3139 29.1042 39.1251 32.2513 36.9102V36.9264C32.3105 36.8847 32.3629 36.8323 32.4233 36.792C32.8802 36.4623 33.3237 36.112 33.7537 35.7412C33.8791 35.6346 34.0045 35.5262 34.1299 35.416C34.5339 35.046 34.9236 34.6563 35.299 34.2469C35.4239 34.1125 35.5529 33.9822 35.6752 33.8438C35.7706 33.7323 35.8795 33.6355 35.9735 33.5213L35.944 33.4998ZM21.5 10.7501C22.696 10.7501 23.8651 11.1047 24.8595 11.7692C25.8539 12.4336 26.6289 13.378 27.0866 14.4829C27.5443 15.5879 27.664 16.8037 27.4307 17.9767C27.1974 19.1496 26.6215 20.2271 25.7758 21.0728C24.9301 21.9184 23.8527 22.4943 22.6797 22.7277C21.5067 22.961 20.2909 22.8412 19.186 22.3836C18.081 21.9259 17.1366 21.1508 16.4722 20.1564C15.8078 19.162 15.4531 17.9929 15.4531 16.797C15.4531 15.1932 16.0902 13.6552 17.2242 12.5212C18.3582 11.3872 19.8963 10.7501 21.5 10.7501ZM10.7594 33.4998C10.7827 31.7354 11.4997 30.0511 12.7554 28.8114C14.011 27.5716 15.7042 26.876 17.4688 26.8751H25.5312C27.2958 26.876 28.989 27.5716 30.2446 28.8114C31.5003 30.0511 32.2173 31.7354 32.2406 33.4998C29.2935 36.1555 25.4671 37.6252 21.5 37.6252C17.5329 37.6252 13.7065 36.1555 10.7594 33.4998Z" fill="#D0D3DB"/>
</svg>
